<?xml version="1.0" encoding="UTF-8"?>
<svg version="1.1" xmlns="http://www.w3.org/2000/svg" width="588" height="658">
<path d="M0 0 C194.04 0 388.08 0 588 0 C588 217.14 588 434.28 588 658 C393.96 658 199.92 658 0 658 C0 440.86 0 223.72 0 0 Z " fill="#FEFEFE" transform="translate(0,0)"/>
<path d="M0 0 C14.05604727 12.08924961 25.14171006 27.81056552 27.09375 46.80078125 C28.41542013 68.42063036 24.4697348 87.95196133 10.01171875 104.703125 C9.37878906 105.39535156 8.74585938 106.08757812 8.09375 106.80078125 C7.28357422 107.73083984 7.28357422 107.73083984 6.45703125 108.6796875 C-5.63156068 121.76346618 -23.57256304 129.26685528 -41.22265625 130.05078125 C-48.9632971 130.23329526 -56.40837934 129.85517164 -63.90625 127.80078125 C-64.67582031 127.62933594 -65.44539063 127.45789063 -66.23828125 127.28125 C-83.58251553 122.93818649 -98.66327786 109.9586963 -108.03125 95.05078125 C-114.65500356 83.53891009 -118.2967282 72.36613577 -118.21875 59.11328125 C-118.21456055 58.14156982 -118.21037109 57.1698584 -118.20605469 56.16870117 C-118.08931471 48.71535055 -117.20333142 41.9197534 -114.90625 34.80078125 C-114.6278125 33.86363281 -114.349375 32.92648437 -114.0625 31.9609375 C-107.99413962 13.31119203 -93.98369285 -0.0651945 -76.96875 -9.07421875 C-51.71221597 -20.89350883 -21.83156368 -17.31314579 0 0 Z " fill="#020202" transform="translate(432.90625,286.19921875)"/>
<path d="M0 0 C9.9 0 19.8 0 30 0 C30 36.3 30 72.6 30 110 C32.92264434 111.46132217 34.92463146 112.34099246 38 113 C38.6084375 112.33097656 39.216875 111.66195312 39.84375 110.97265625 C50.39322293 99.41477782 60.98606068 87.87719447 72.13671875 76.89453125 C73.96832558 75.03220565 75.67703342 73.10927477 77.375 71.125 C80.26212704 67.75444704 83.34218227 64.61465484 86.5 61.5 C90.38578811 57.66225048 94.07090236 53.75723992 97.5625 49.55859375 C99 48 99 48 102 46 C102.4846875 46.49628906 102.969375 46.99257813 103.46875 47.50390625 C106.94270156 51.02462254 110.44525231 54.45134676 114.1875 57.6875 C114.83976563 58.2546875 115.49203125 58.821875 116.1640625 59.40625 C117.32144895 60.41095994 118.48243318 61.41155437 119.6484375 62.40625 C121.0625 63.6875 121.0625 63.6875 123 66 C122.7188446 69.7429417 120.82745806 71.51236389 118.2109375 74.046875 C117.43363281 74.81 116.65632812 75.573125 115.85546875 76.359375 C115.03691406 77.14828125 114.21835938 77.9371875 113.375 78.75 C108.21457696 83.76823958 103.19645052 88.79569225 98.51025391 94.26269531 C96.6078775 96.45107399 94.58062283 98.48148531 92.5 100.5 C89.73439592 103.22829407 87.08712969 105.98516834 84.5625 108.9375 C81.84380752 112.1103592 78.97248325 115.06338382 76 118 C70.24778034 123.69102584 65.03336888 129.67015732 60 136 C80.2065439 153.39548624 97.13135755 165.70101721 124 170 C124 179.9 124 189.8 124 200 C106.51251904 200 106.51251904 200 99.4375 197.9375 C98.64085937 197.71562012 97.84421875 197.49374023 97.0234375 197.26513672 C89.51216445 195.06028269 82.7906237 191.91309691 76 188 C75.071875 187.47792969 74.14375 186.95585937 73.1875 186.41796875 C65.66290391 181.92289754 59.26185155 176.24503082 52.70458984 170.48242188 C47.66430023 166.09905915 42.5598056 161.70653707 37 158 C37 158.66 37 159.32 37 160 C36.02659668 160.53979492 35.05319336 161.07958984 34.05029297 161.63574219 C30.65407943 163.74478403 30.65407943 163.74478403 30.22705078 167.57519531 C30.18629682 168.99229212 30.17748378 170.41055441 30.1953125 171.828125 C30.18160614 172.57713074 30.16789978 173.32613647 30.15377808 174.09783936 C30.11648367 176.48250424 30.1201917 178.86508496 30.125 181.25 C30.10687247 182.86982421 30.08606958 184.48962084 30.0625 186.109375 C30.00562847 190.07413295 30.00424685 194.03344313 30 198 C20.1 198 10.2 198 0 198 C-0.00257812 195.73640625 -0.00515625 193.4728125 -0.0078125 191.140625 C-0.03064279 188.9428606 -0.06365788 186.74546821 -0.09765625 184.54785156 C-0.11579913 183.02320154 -0.12338779 181.49838727 -0.12011719 179.97363281 C-0.11725457 177.77800896 -0.15261171 175.58577806 -0.1953125 173.390625 C-0.20578613 172.07094727 -0.21625977 170.75126953 -0.22705078 169.39160156 C-0.6867292 165.75306241 -0.6867292 165.75306241 -3.92675781 163.65209961 C-4.94092773 163.10690674 -5.95509766 162.56171387 -7 162 C-14.15198167 155.39925802 -18.0459351 148.54072848 -18.52099609 138.80957031 C-18.66857205 130.81963448 -17.72674452 124.68219226 -13 118 C-12.58105469 117.39671875 -12.16210938 116.7934375 -11.73046875 116.171875 C-9.2653652 112.94767607 -6.66146209 110.73437678 -3 109 C-2.01 109 -1.02 109 0 109 C0 73.03 0 37.06 0 0 Z " fill="#010101" transform="translate(33,214)"/>
<path d="M0 0 C9.47088195 7.72262322 16.24809488 18.08064948 18.6875 30.19140625 C18.95597707 33.5495069 18.94089007 36.89028988 18.91455078 40.25756836 C18.91484283 41.24370117 18.91513489 42.22983398 18.91543579 43.24584961 C18.91404878 46.48690768 18.89851709 49.72773236 18.8828125 52.96875 C18.87908014 55.22318903 18.87623422 57.47762969 18.87423706 59.73207092 C18.86661819 65.65203365 18.84698465 71.5718975 18.8248291 77.49182129 C18.80433306 83.53815371 18.79522731 89.58450219 18.78515625 95.63085938 C18.76373714 107.48442532 18.72856918 119.33789208 18.6875 131.19140625 C7.7975 131.19140625 -3.0925 131.19140625 -14.3125 131.19140625 C-14.3218457 128.61352295 -14.33119141 126.03563965 -14.34082031 123.37963867 C-14.37469788 114.83000438 -14.43030646 106.28060872 -14.49640274 97.73116589 C-14.53578926 92.55131513 -14.56802092 87.37163215 -14.58349609 82.19165039 C-14.59872093 77.18584117 -14.63326931 72.18049344 -14.68080902 67.17489052 C-14.69556293 65.27212871 -14.70353755 63.36930099 -14.70438385 61.46648216 C-14.50522479 44.8926563 -14.50522479 44.8926563 -21.625 30.31640625 C-31.09764543 22.82640754 -36.92738401 21.42774999 -49.3125 22.19140625 C-56.28996668 23.58470542 -61.2377574 27.54034626 -65.5625 33.06640625 C-69.03349365 39.26460919 -69.61257949 45.13363719 -69.63134766 52.06420898 C-69.64641609 53.35321358 -69.64641609 53.35321358 -69.66178894 54.66825867 C-69.69249219 57.48716611 -69.70962014 60.30597915 -69.7265625 63.125 C-69.7452845 65.08798528 -69.76485868 67.0509626 -69.7852478 69.01393127 C-69.83646593 74.16441138 -69.87614681 79.31491755 -69.91339111 84.46551514 C-69.95349556 89.72772616 -70.00455848 94.98982974 -70.0546875 100.25195312 C-70.15132463 110.56503601 -70.23475484 120.87816363 -70.3125 131.19140625 C-81.2025 131.19140625 -92.0925 131.19140625 -103.3125 131.19140625 C-103.3125 85.65140625 -103.3125 40.11140625 -103.3125 -6.80859375 C-93.0825 -6.80859375 -82.8525 -6.80859375 -72.3125 -6.80859375 C-72.3125 -1.85859375 -72.3125 3.09140625 -72.3125 8.19140625 C-71.6525 8.19140625 -70.9925 8.19140625 -70.3125 8.19140625 C-70.0753125 7.45019531 -69.838125 6.70898438 -69.59375 5.9453125 C-66.22375874 -1.29811383 -57.92440975 -5.42695638 -50.734375 -8.1171875 C-33.60256013 -13.00804433 -14.42361393 -10.41492335 0 0 Z " fill="#010101" transform="translate(277.3125,280.80859375)"/>
<path d="M0 0 C11.55 0 23.1 0 35 0 C35 10.56 35 21.12 35 32 C45.89 32 56.78 32 68 32 C68 42.56 68 53.12 68 64 C57.11 64 46.22 64 35 64 C35.06191699 75.48656735 35.06191699 75.48656735 35.16015625 86.97265625 C35.20832357 91.66422776 35.25243056 96.35556905 35.27099609 101.04736328 C35.28625106 104.83427321 35.32085008 108.62057676 35.36830902 112.40721512 C35.38303252 113.844679 35.39103578 115.28222949 35.39188385 116.71976852 C35.40295796 126.08724529 35.53913906 135.42475801 42.4375 142.5 C48.09898356 145.81403916 52.87273302 146.38015076 59.3125 146.625 C62.179375 146.74875 65.04625 146.8725 68 147 C68 156.9 68 166.8 68 177 C55.98214391 179.40357122 41.47106391 179.63254504 30 175 C29.24203125 174.73316406 28.4840625 174.46632813 27.703125 174.19140625 C17.32871412 170.1668503 9.62978743 163.08684094 5 153 C1.5238416 144.24812853 -0.13035546 136.12941371 -0.11352539 126.68774414 C-0.11367142 125.99421844 -0.11381744 125.30069275 -0.1139679 124.58615112 C-0.1132774 122.31911977 -0.10552592 120.05217305 -0.09765625 117.78515625 C-0.095789 116.20332382 -0.09436655 114.62149081 -0.09336853 113.03965759 C-0.08956755 108.89523699 -0.07975814 104.75085195 -0.06866455 100.60644531 C-0.0583982 96.36979656 -0.05385976 92.13314201 -0.04882812 87.89648438 C-0.03813351 79.59763818 -0.02055653 71.29882763 0 63 C-7.92 63 -15.84 63 -24 63 C-24 52.77 -24 42.54 -24 32 C-16.08 32 -8.16 32 0 32 C0 21.44 0 10.88 0 0 Z " fill="#020202" transform="translate(488,239)"/>
<path d="M0 0 C12.10340895 7.37800617 19.43957541 16.18252244 23 30 C24.49881279 42.51182854 22.05116016 53.75178603 14.61328125 63.9765625 C7.48453804 72.91769805 -2.3494369 79.68068536 -14 81 C-27.29874801 82.19263956 -37.14674535 78.77957316 -47.8125 70.8828125 C-55.59482127 64.18445741 -61.47412348 53.52906439 -62.30078125 43.265625 C-62.50666785 29.27744732 -59.69738739 18.65956081 -50.1875 7.9609375 C-36.50135052 -4.98387888 -16.98283449 -7.96804687 0 0 Z " fill="#FCFCFC" transform="translate(407,305)"/>
<path d="M0 0 C0 3.58912412 -0.66436554 4.10857029 -3 6.6875 C-3.556875 7.31011719 -4.11375 7.93273437 -4.6875 8.57421875 C-5.120625 9.04472656 -5.55375 9.51523437 -6 10 C-6.99 9.67 -7.98 9.34 -9 9 C-6 6 -3 3 0 0 Z " fill="#DEDEDE" transform="translate(440,393)"/>
</svg>
